<svg width="42" height="41" viewBox="0 0 42 41" fill="none" xmlns="http://www.w3.org/2000/svg">
<circle cx="21.1006" cy="13.6667" r="4.27083" stroke="#0D1112" stroke-opacity="0.61" stroke-width="1.70833" stroke-linecap="round"/>
<path d="M24.1205 11.1042C24.4584 10.5189 24.9622 10.0471 25.5683 9.74817C26.1743 9.4493 26.8554 9.33685 27.5254 9.42505C28.1954 9.51326 28.8241 9.79815 29.3322 10.2437C29.8402 10.6893 30.2048 11.2755 30.3797 11.9282C30.5546 12.5809 30.532 13.2709 30.3148 13.9107C30.0976 14.5506 29.6955 15.1117 29.1594 15.5231C28.6233 15.9345 27.9772 16.1776 27.3029 16.2218C26.6286 16.266 25.9563 16.1093 25.3711 15.7714" stroke="#0D1112" stroke-opacity="0.61" stroke-width="1.70833"/>
<path d="M18.0807 11.1042C17.7428 10.5189 17.239 10.0471 16.6329 9.74817C16.0268 9.4493 15.3458 9.33685 14.6758 9.42505C14.0058 9.51326 13.377 9.79815 12.869 10.2437C12.3609 10.6893 11.9964 11.2755 11.8215 11.9282C11.6466 12.5809 11.6692 13.2709 11.8864 13.9107C12.1036 14.5506 12.5057 15.1117 13.0418 15.5231C13.5779 15.9345 14.224 16.1776 14.8983 16.2218C15.5726 16.266 16.2449 16.1093 16.8301 15.7714" stroke="#0D1112" stroke-opacity="0.61" stroke-width="1.70833"/>
<path d="M33.5658 26.3361L32.7372 26.5436L32.7372 26.5436L33.5658 26.3361ZM22.958 21.5009L22.3272 20.925L21.2673 22.0858L22.818 22.3435L22.958 21.5009ZM29.9523 28.1875L29.1318 28.4249L29.3102 29.0416H29.9523V28.1875ZM27.0801 20.5C28.8358 20.5 30.0688 21.3587 30.9722 22.5618C31.8936 23.789 32.4347 25.3355 32.7372 26.5436L34.3944 26.1286C34.0679 24.8246 33.457 23.026 32.3383 21.5361C31.2015 20.0221 29.5062 18.7916 27.0801 18.7916V20.5ZM23.5888 22.0768C24.4436 21.1406 25.5608 20.5 27.0801 20.5V18.7916C25.0006 18.7916 23.4474 19.6981 22.3272 20.925L23.5888 22.0768ZM22.818 22.3435C26.748 22.9966 28.4108 25.9327 29.1318 28.4249L30.7728 27.9501C29.968 25.1682 27.9666 21.4674 23.098 20.6583L22.818 22.3435ZM32.0257 27.3333H29.9523V29.0416H32.0257V27.3333ZM32.7372 26.5436C32.8291 26.9106 32.5595 27.3333 32.0257 27.3333V29.0416C33.5132 29.0416 34.7935 27.7223 34.3944 26.1286L32.7372 26.5436Z" fill="#0D1112" fill-opacity="0.61"/>
<path d="M19.2434 21.5009L19.3835 22.3436L20.9341 22.0859L19.8742 20.925L19.2434 21.5009ZM8.63562 26.3361L7.80704 26.1286L7.80704 26.1286L8.63562 26.3361ZM12.2492 28.1875V29.0417H12.8912L13.0697 28.4249L12.2492 28.1875ZM15.1214 20.5C16.6407 20.5 17.7579 21.1407 18.6127 22.0769L19.8742 20.925C18.7541 19.6982 17.2009 18.7917 15.1214 18.7917V20.5ZM9.4642 26.5436C9.76672 25.3356 10.3078 23.7891 11.2293 22.5619C12.1327 21.3587 13.3657 20.5 15.1214 20.5V18.7917C12.6953 18.7917 10.9999 20.0221 9.86316 21.5361C8.74444 23.026 8.13358 24.8246 7.80704 26.1286L9.4642 26.5436ZM10.1758 27.3333C9.6419 27.3333 9.37228 26.9106 9.4642 26.5436L7.80704 26.1286C7.40791 27.7224 8.68824 29.0417 10.1758 29.0417V27.3333ZM12.2492 27.3333H10.1758V29.0417H12.2492V27.3333ZM13.0697 28.4249C13.7907 25.9327 15.4534 22.9967 19.3835 22.3436L19.1034 20.6583C14.2348 21.4674 12.2335 25.1682 11.4287 27.9501L13.0697 28.4249Z" fill="#0D1112" fill-opacity="0.61"/>
<path d="M21.1009 21.3542C28.0713 21.3542 29.8706 26.9953 30.3351 29.9077C30.4837 30.8395 29.7319 31.6042 28.7884 31.6042H13.4134C12.4699 31.6042 11.7181 30.8395 11.8667 29.9077C12.3312 26.9953 14.1305 21.3542 21.1009 21.3542Z" stroke="#0D1112" stroke-opacity="0.61" stroke-width="1.70833" stroke-linecap="round"/>
</svg>
