<svg width="41" height="41" viewBox="0 0 41 41" fill="none" xmlns="http://www.w3.org/2000/svg">
<path d="M30.5283 37.3613C29.9987 37.3613 29.4691 37.2246 28.9908 36.9342L22.1404 32.8683C21.4229 32.8512 20.7054 32.8 20.022 32.6975C19.5608 32.6292 19.1679 32.3216 18.997 31.8775C18.8262 31.4333 18.9116 30.955 19.2191 30.5962C20.3466 29.2808 20.9275 27.7092 20.9275 26.035C20.9275 21.9008 17.2887 18.5354 12.8129 18.5354C11.1387 18.5354 9.53286 18.9967 8.18328 19.885C7.80745 20.1242 7.3462 20.1583 6.9362 19.9704C6.54329 19.7825 6.25288 19.4066 6.20163 18.9625C6.15038 18.4841 6.11621 18.0058 6.11621 17.5104C6.11621 9.03709 13.462 2.15253 22.482 2.15253C31.502 2.15253 38.8479 9.03709 38.8479 17.5104C38.8479 22.1571 36.6954 26.4279 32.9029 29.3492L33.4837 33.9959C33.6204 35.1576 33.1079 36.2509 32.1341 36.883C31.6558 37.1905 31.092 37.3613 30.5283 37.3613ZM22.4649 30.2887C22.7041 30.2716 22.9433 30.3401 23.1483 30.4767L30.3062 34.7305C30.4941 34.85 30.6479 34.7988 30.7504 34.7305C30.8358 34.6792 30.9725 34.5425 30.9383 34.3034L30.272 28.905C30.2208 28.4266 30.4258 27.9655 30.8016 27.6921C34.2866 25.2492 36.2854 21.525 36.2854 17.4762C36.2854 10.4208 30.1012 4.68083 22.482 4.68083C15.1533 4.68083 9.13995 10.0109 8.69579 16.7076C9.97704 16.2121 11.3608 15.9388 12.7958 15.9388C18.6896 15.9388 23.4729 20.4487 23.4729 26.0008C23.49 27.5041 23.1312 28.9562 22.4649 30.2887Z" fill="#292D32"/>
<path d="M7.82402 38.8647C7.37986 38.8647 6.95276 38.7452 6.55985 38.4889C5.7911 37.9935 5.38111 37.1393 5.48361 36.2339L5.82528 33.603C3.51903 31.7238 2.15234 28.9392 2.15234 26.018C2.15234 22.6867 3.89486 19.5776 6.81611 17.7155C8.5757 16.5709 10.6598 15.956 12.8294 15.956C18.7232 15.956 23.5065 20.4659 23.5065 26.018C23.5065 28.273 22.6865 30.4939 21.1832 32.2535C19.2528 34.5939 16.3657 35.9605 13.1882 36.063L9.01985 38.5401C8.64402 38.7622 8.23402 38.8647 7.82402 38.8647ZM12.8124 18.5185C11.1382 18.5185 9.53234 18.9797 8.18276 19.868C5.99609 21.2689 4.69777 23.558 4.69777 26.018C4.69777 28.3926 5.85944 30.5622 7.90944 31.9631C8.30236 32.2364 8.50735 32.6976 8.4561 33.1759L8.08026 36.0972L12.1632 33.6714C12.3682 33.5518 12.5903 33.4834 12.8124 33.4834C15.3236 33.4834 17.6982 32.4072 19.2015 30.5793C20.329 29.2468 20.9269 27.6751 20.9269 26.0009C20.9269 21.8838 17.2882 18.5185 12.8124 18.5185Z" fill="#292D32"/>
</svg>
