<svg width="42" height="41" viewBox="0 0 42 41" fill="none" xmlns="http://www.w3.org/2000/svg">
<path d="M3.51374 18.5817C3.51349 18.6898 3.51703 18.7976 3.52466 18.9048C3.51708 18.7994 3.51344 18.6915 3.51374 18.5817ZM3.51374 18.5817C3.51537 17.888 3.67346 17.1834 3.91075 16.5622C4.22818 15.7312 4.75037 14.8845 5.46252 14.3098L5.46624 14.3068L5.46625 14.3068L17.305 4.82544L17.3087 4.8225L17.3087 4.82251C18.2394 4.08272 19.4403 3.74138 20.583 3.74138C21.7438 3.74138 22.9374 4.08298 23.8791 4.81278L23.8868 4.8187L23.8943 4.82473L35.733 14.289L35.7356 14.291C35.8162 14.3558 35.8944 14.4242 35.9702 14.4959C35.8936 14.4226 35.8157 14.3539 35.7367 14.2901C35.7361 14.2896 35.7354 14.289 35.7347 14.2885L23.9 4.82755L23.8997 4.82727C22.0546 3.35124 19.1173 3.34585 17.3041 4.80725L17.301 4.80975L5.46226 14.2911L5.46049 14.2925C4.83091 14.7949 4.27126 15.6033 3.91151 16.55C3.64939 17.2397 3.51547 17.9447 3.51374 18.5817ZM37.6318 19.2587C37.6408 19.205 37.6485 19.151 37.6552 19.0968C37.6487 19.1549 37.6409 19.2121 37.6319 19.2684C37.6317 19.2693 37.6316 19.2702 37.6314 19.2712L35.361 32.8593C35.361 32.8596 35.3609 32.8598 35.3609 32.8601C35.3141 33.136 35.2417 33.4064 35.1467 33.669C35.2405 33.4069 35.3122 33.1368 35.3591 32.8608L35.3596 32.8575L37.6317 19.2592L37.6318 19.2587ZM11.0334 37.2589C8.69498 37.2589 6.52058 35.54 5.9314 33.2912C6.52228 35.5073 8.72063 37.2589 11.0334 37.2589Z" fill="#292D32" stroke="#83979B" stroke-width="2.5625"/>
<path d="M20.6009 26.4792C18.2575 26.4792 16.3413 24.5699 16.3301 22.229C16.3414 24.5672 18.2602 26.4792 20.6009 26.4792ZM20.6009 26.4792C22.9512 26.4792 24.8717 24.5586 24.8717 22.2083M20.6009 26.4792C22.9485 26.4792 24.8717 24.5559 24.8717 22.2083M24.8717 22.2083C24.8717 19.8649 22.9624 17.9487 20.6215 17.9375C22.9598 17.9488 24.8717 19.8676 24.8717 22.2083ZM16.3301 22.1877C16.3413 19.8537 18.2463 17.9487 20.5803 17.9375C18.2489 17.9487 16.3413 19.8563 16.3301 22.1877Z" fill="#83979B" stroke="#83979B" stroke-width="2.5625"/>
</svg>
